# xmcd CD database file
# Copyright (C) 1993-1996 Ti Kan
#
# Track frame offsets:
#	187
#	22500
#	46050
#	82275
#	97805
#	111775
#	133112
#	149142
#	166680
#	189842
#
# Disc length: 2553 seconds
#
# Revision: 1
# Processed by: cddbd v1.4b41PL1 Copyright (c) Steve Scherf et al.
# Submitted via: CDValet v3.01 - Copyright (c) 1997 Greg Leichner
#
DISCID=7709f70a
DTITLE=Roomful Of Blues - Live At Lupo's Heartreak Hotel
DYEAR=1900
DGENRE=
TTITLE0=Gator's Groove/Welcome To Lupo's
TTITLE1=Coconut Milk
TTITLE2=Three Hours Past Midnight
TTITLE3=Three Hundred Pounds
TTITLE4=House Of Joy
TTITLE5=Pink Champagne
TTITLE6=Please Don't Leave
TTITLE7=That's My Life
TTITLE8=Please Don't Leave Me
TTITLE9=Zydeco Boogaloo
EXTD=
EXTT0=
EXTT1=
EXTT2=
EXTT3=
EXTT4=
EXTT5=
EXTT6=
EXTT7=
EXTT8=
EXTT9=
PLAYORDER=
